<svg width="121" height="74" viewBox="0 0 121 74" fill="none" xmlns="http://www.w3.org/2000/svg">
<path fill-rule="evenodd" clip-rule="evenodd" d="M77.2892 10.1404L84.0288 59.2802L84.6344 64.2101C84.8294 65.7983 83.6997 67.2438 82.111 67.4389L39.6811 72.6469C38.0924 72.8419 36.6464 71.7125 36.4513 70.1243L29.9189 16.9394C29.8214 16.1453 30.3863 15.4225 31.1806 15.325C31.1856 15.3244 31.1906 15.3238 31.1957 15.3233L34.7158 14.9285M37.5622 14.6094L40.8858 14.2367L37.5622 14.6094Z" fill="white"/>
<path d="M78.5276 9.97066C78.4338 9.28671 77.8033 8.80826 77.1193 8.90201C76.4353 8.99576 75.9569 9.62622 76.0507 10.3102L78.5276 9.97066ZM84.0288 59.2802L85.2695 59.1279C85.2688 59.122 85.2681 59.1162 85.2673 59.1104L84.0288 59.2802ZM84.6344 64.2101L85.875 64.0578L84.6344 64.2101ZM82.111 67.4389L82.2633 68.6795L82.111 67.4389ZM39.6811 72.6469L39.8335 73.8876L39.6811 72.6469ZM36.4513 70.1243L37.692 69.972L36.4513 70.1243ZM29.9189 16.9394L28.6782 17.0917L29.9189 16.9394ZM31.1957 15.3233L31.3351 16.5655L31.1957 15.3233ZM34.8552 16.1707C35.5413 16.0938 36.035 15.4753 35.958 14.7892C35.881 14.1032 35.2625 13.6094 34.5764 13.6863L34.8552 16.1707ZM37.4229 13.3672C36.7368 13.4441 36.243 14.0626 36.32 14.7486C36.397 15.4347 37.0156 15.9285 37.7016 15.8516L37.4229 13.3672ZM41.0252 15.4789C41.7113 15.4019 42.205 14.7834 42.128 14.0974C42.051 13.4113 41.4325 12.9175 40.7464 12.9945L41.0252 15.4789ZM76.0507 10.3102L82.7904 59.4499L85.2673 59.1104L78.5276 9.97066L76.0507 10.3102ZM82.7882 59.4324L83.3937 64.3624L85.875 64.0578L85.2695 59.1279L82.7882 59.4324ZM83.3937 64.3624C83.5045 65.265 82.8624 66.0872 81.9586 66.1982L82.2633 68.6795C84.5369 68.4005 86.1543 66.3316 85.875 64.0578L83.3937 64.3624ZM81.9586 66.1982L39.5287 71.4062L39.8335 73.8876L82.2633 68.6795L81.9586 66.1982ZM39.5287 71.4062C38.6249 71.5172 37.8028 70.8747 37.692 69.972L35.2106 70.2766C35.4899 72.5504 37.5599 74.1667 39.8335 73.8876L39.5287 71.4062ZM37.692 69.972L31.1596 16.7871L28.6782 17.0917L35.2106 70.2766L37.692 69.972ZM31.1596 16.7871C31.1463 16.6786 31.2235 16.5792 31.333 16.5657L31.0282 14.0844C29.549 14.2659 28.4965 15.612 28.6782 17.0917L31.1596 16.7871ZM31.333 16.5657C31.3337 16.5656 31.3344 16.5655 31.3351 16.5655L31.0563 14.0811C31.0469 14.0821 31.0376 14.0832 31.0282 14.0844L31.333 16.5657ZM31.3351 16.5655L34.8552 16.1707L34.5764 13.6863L31.0563 14.0811L31.3351 16.5655ZM37.7016 15.8516L41.0252 15.4789L40.7464 12.9945L37.4229 13.3672L37.7016 15.8516Z" fill="#1F64E7"/>
<path fill-rule="evenodd" clip-rule="evenodd" d="M115.928 10.8648C118.729 10.8648 121 13.1348 121 15.935C121 18.7352 118.729 21.0052 115.928 21.0052H86.9461C89.7472 21.0052 92.018 23.2753 92.018 26.0755C92.018 28.8757 89.7472 31.1457 86.9461 31.1457H102.886C105.687 31.1457 107.958 33.4157 107.958 36.2159C107.958 39.0161 105.687 41.2861 102.886 41.2861H95.5147C91.9829 41.2861 89.1198 43.5562 89.1198 46.3564C89.1198 48.2232 90.5689 49.9133 93.4671 51.4266C96.2682 51.4266 98.5389 53.6966 98.5389 56.4968C98.5389 59.297 96.2682 61.5671 93.4671 61.5671H33.3293C30.5282 61.5671 28.2575 59.297 28.2575 56.4968C28.2575 53.6966 30.5282 51.4266 33.3293 51.4266H5.07186C2.27075 51.4266 0 49.1566 0 46.3564C0 43.5562 2.27075 41.2861 5.07186 41.2861H34.0539C36.855 41.2861 39.1257 39.0161 39.1257 36.2159C39.1257 33.4157 36.855 31.1457 34.0539 31.1457H15.9401C13.139 31.1457 10.8683 28.8757 10.8683 26.0755C10.8683 23.2753 13.139 21.0052 15.9401 21.0052H44.9222C42.121 21.0052 39.8503 18.7352 39.8503 15.935C39.8503 13.1348 42.121 10.8648 44.9222 10.8648H115.928ZM115.928 31.1457C118.729 31.1457 121 33.4157 121 36.2159C121 39.0161 118.729 41.2861 115.928 41.2861C113.127 41.2861 110.856 39.0161 110.856 36.2159C110.856 33.4157 113.127 31.1457 115.928 31.1457Z" fill="#F3F7FF"/>
<path fill-rule="evenodd" clip-rule="evenodd" d="M75.4547 13.2327L81.5551 57.7665L82.1039 62.2343C82.2807 63.6736 81.2706 64.9819 79.8479 65.1566L41.851 69.8205C40.4283 69.9951 39.1316 68.9699 38.9549 67.5306L33.117 20.0001C32.9823 18.9038 33.7619 17.9059 34.8583 17.7714L39.0121 17.2615" fill="#E8F0FE"/>
<path d="M44.4854 4C44.4854 2.48122 45.7166 1.25 47.2354 1.25H78.6859C79.4148 1.25 80.1139 1.53938 80.6296 2.05454L89.7239 11.1403C90.2402 11.6561 90.5303 12.356 90.5303 13.0858V56.8427C90.5303 58.3615 89.299 59.5927 87.7803 59.5927H47.2354C45.7166 59.5927 44.4854 58.3615 44.4854 56.8427V4Z" fill="white" stroke="#1F64E7" stroke-width="2.5"/>
<path d="M79.4629 1.74042V10.1405C79.4629 11.3405 80.4361 12.3134 81.6365 12.3134H87.3848" stroke="#1F64E7" stroke-width="2.5" stroke-linecap="round" stroke-linejoin="round"/>
<path d="M51.4431 49.2537H70.2814M51.4431 12.3134H70.2814H51.4431ZM51.4431 21.0052H82.5988H51.4431ZM51.4431 30.4214H82.5988H51.4431ZM51.4431 39.8375H82.5988H51.4431Z" stroke="#75A4FE" stroke-width="2.5" stroke-linecap="round" stroke-linejoin="round"/>
</svg>
