<svg width="7" height="12" viewBox="0 0 7 12" fill="none" xmlns="http://www.w3.org/2000/svg">
<path d="M0.267679 0.264138C0.0962844 0.433317 0 0.662742 0 0.901961C0 1.14118 0.0962844 1.37061 0.267679 1.53978L4.7932 6.00545L0.267679 10.4711C0.101142 10.6413 0.00899045 10.8691 0.0110735 11.1057C0.0131565 11.3422 0.109307 11.5685 0.278816 11.7358C0.448325 11.903 0.677629 11.9979 0.917342 12C1.15705 12.002 1.388 11.9111 1.56042 11.7468L6.73232 6.64327C6.90372 6.47409 7 6.24467 7 6.00545C7 5.76623 6.90372 5.5368 6.73232 5.36762L1.56042 0.264138C1.38898 0.0950107 1.15648 0 0.914052 0C0.671626 0 0.439126 0.0950107 0.267679 0.264138Z" fill="#9E9E9E"/>
</svg>
