<svg width="173" height="108" viewBox="0 0 173 108" fill="none" xmlns="http://www.w3.org/2000/svg">
<path d="M5 102.54C6.14158 105.592 20.3153 92.4722 20.7228 92.0661C33.957 78.8808 46.6537 61.0051 48.6856 41.8905C49.3034 36.0787 48.9359 31.441 42.151 32.0483C33.4411 32.8278 33.6306 44.8282 33.5843 51.2227C33.5244 59.5185 32.7622 72.1322 38.4359 79.0318C46.5586 88.9094 61.3537 86.1056 70.8103 80.1955C87.693 69.6444 99.859 50.9586 104.711 31.8155C106.141 26.1724 110.735 6.03818 100.299 5.04859C89.3209 4.00761 82.6026 19.9553 79.1693 27.7922C75.6734 35.772 72.8485 44.2439 71.8055 52.9298C71.2043 57.936 70.5568 65.058 73.5303 69.5553C79.4042 78.4391 97.6201 77.6919 106.635 76.8705C121.791 75.4893 132.685 66.2065 134.871 51.5666C136.273 42.1743 136.774 27.4219 128.966 20.344C122.326 14.3237 118.125 21.3751 117.755 27.7922C116.698 46.1066 125.194 61.3357 138.147 73.0134C146.952 80.9523 156.567 86.6222 168 89.3728" stroke="url(#paint0_linear_253_16)" stroke-width="10" stroke-linecap="round"/>
<defs>
<linearGradient id="paint0_linear_253_16" x1="40.5079" y1="13.4312" x2="130.373" y2="102.744" gradientUnits="userSpaceOnUse">
<stop stop-color="#002990"/>
<stop offset="0.47" stop-color="#3D8FDB"/>
<stop offset="1" stop-color="#96D9FF"/>
</linearGradient>
</defs>
</svg>
