<svg width="74" height="25" viewBox="0 0 74 25" fill="none" xmlns="http://www.w3.org/2000/svg">
<rect width="74" height="25" fill="#002990"/>
<path d="M18.26 5C18.4067 5 18.5333 5.05333 18.64 5.16C18.7467 5.26667 18.8 5.39333 18.8 5.54V8.58C18.8 8.72667 18.7467 8.85333 18.64 8.96C18.5333 9.06667 18.4067 9.12 18.26 9.12H10.4V10.4H16.96C17.1067 10.4 17.2333 10.4533 17.34 10.56C17.4467 10.6667 17.5 10.7933 17.5 10.94V13.96C17.5 14.1067 17.4467 14.2333 17.34 14.34C17.2333 14.4467 17.1067 14.5 16.96 14.5H10.4V18.46C10.4 18.6067 10.3467 18.7333 10.24 18.84C10.1333 18.9467 10.0067 19 9.86 19H5.54C5.39333 19 5.26667 18.9467 5.16 18.84C5.05333 18.7333 5 18.6067 5 18.46V5.54C5 5.39333 5.05333 5.26667 5.16 5.16C5.26667 5.05333 5.39333 5 5.54 5H18.26ZM35.0122 14.9C35.1589 14.9 35.2855 14.9533 35.3922 15.06C35.4989 15.1667 35.5522 15.2933 35.5522 15.44V18.46C35.5522 18.6067 35.4989 18.7333 35.3922 18.84C35.2855 18.9467 35.1589 19 35.0122 19H23.3322C23.1855 19 23.0589 18.9467 22.9522 18.84C22.8455 18.7333 22.7922 18.6067 22.7922 18.46V5.54C22.7922 5.39333 22.8455 5.26667 22.9522 5.16C23.0589 5.05333 23.1855 5 23.3322 5H27.6522C27.7989 5 27.9255 5.05333 28.0322 5.16C28.1389 5.26667 28.1922 5.39333 28.1922 5.54V14.9H35.0122ZM52.9244 13.22C52.9244 15.26 52.2444 16.7667 50.8844 17.74C49.5377 18.7133 47.7377 19.2 45.4844 19.2C43.231 19.2 41.4244 18.7133 40.0644 17.74C38.7177 16.7667 38.0444 15.2467 38.0444 13.18V10.82C38.0444 9.46 38.3644 8.33333 39.0044 7.44C39.6577 6.53333 40.5444 5.86667 41.6644 5.44C42.7844 5.01333 44.0577 4.8 45.4844 4.8C46.911 4.8 48.1777 5.01333 49.2844 5.44C50.4044 5.86667 51.291 6.52667 51.9444 7.42C52.5977 8.31333 52.9244 9.43333 52.9244 10.78V13.22ZM43.4444 13.6C43.4444 14.1467 43.6244 14.5667 43.9844 14.86C44.3577 15.1533 44.8577 15.3 45.4844 15.3C46.111 15.3 46.6044 15.1533 46.9644 14.86C47.3377 14.5533 47.5244 14.1267 47.5244 13.58V10.42C47.5244 9.87333 47.3377 9.45333 46.9644 9.16C46.6044 8.85333 46.111 8.7 45.4844 8.7C44.8577 8.7 44.3577 8.84667 43.9844 9.14C43.6244 9.43333 43.4444 9.85333 43.4444 10.4V13.6ZM60.7166 18.46C60.6766 18.58 60.5766 18.7 60.4166 18.82C60.2699 18.94 60.0766 19 59.8366 19H57.0366C56.7832 19 56.5699 18.9267 56.3966 18.78C56.2366 18.62 56.1432 18.44 56.1166 18.24L54.3766 5.5V5.44C54.3766 5.32 54.4166 5.22 54.4966 5.14C54.5899 5.04667 54.6966 5 54.8166 5H58.2566C58.5232 5 58.7366 5.08 58.8966 5.24C59.0699 5.4 59.1699 5.6 59.1966 5.84L59.8366 11.96L60.9966 8.78C61.0366 8.64667 61.1299 8.52 61.2766 8.4C61.4366 8.26667 61.6366 8.2 61.8766 8.2H63.2366C63.4766 8.2 63.6699 8.26667 63.8166 8.4C63.9766 8.52 64.0766 8.64667 64.1166 8.78L65.2766 11.96L65.9166 5.84C65.9432 5.6 66.0366 5.4 66.1966 5.24C66.3699 5.08 66.5899 5 66.8566 5H70.2966C70.4166 5 70.5166 5.04667 70.5966 5.14C70.6899 5.22 70.7366 5.32 70.7366 5.44V5.5L68.9966 18.24C68.9699 18.44 68.8699 18.62 68.6966 18.78C68.5366 18.9267 68.3299 19 68.0766 19H65.2766C65.0366 19 64.8366 18.94 64.6766 18.82C64.5299 18.7 64.4366 18.58 64.3966 18.46L62.5566 14.24L60.7166 18.46Z" fill="white"/>
</svg>
