<svg width="229" height="144" viewBox="0 0 229 144" fill="none" xmlns="http://www.w3.org/2000/svg">
<path d="M8 135.399C9.49176 139.385 28.0132 122.249 28.5458 121.719C45.8395 104.497 62.4309 81.1496 65.0861 56.1836C65.8934 48.5925 65.4132 42.5352 56.547 43.3284C45.1654 44.3466 45.413 60.0206 45.3525 68.3725C45.2742 79.2079 44.2782 95.6829 51.6923 104.695C62.3066 117.596 81.6401 113.934 93.9976 106.215C116.059 92.4335 131.957 68.0276 138.297 43.0244C140.166 35.6538 146.169 9.35598 132.532 8.06346C118.186 6.70382 109.407 27.5335 104.921 37.7694C100.352 48.1919 96.6609 59.2573 95.2979 70.6022C94.5124 77.1408 93.6663 86.4432 97.5519 92.3171C105.228 103.92 129.031 102.945 140.811 101.872C160.616 100.068 174.852 87.9432 177.709 68.8216C179.541 56.5542 180.196 37.2858 169.993 28.0411C161.315 20.1779 155.826 29.3879 155.342 37.7694C153.961 61.6903 165.063 81.5814 181.989 96.8338C193.496 107.203 206.06 114.609 221 118.201" stroke="url(#paint0_linear_112_457)" stroke-width="15" stroke-linecap="round"/>
<defs>
<linearGradient id="paint0_linear_112_457" x1="54.3999" y1="19.0121" x2="171.775" y2="135.721" gradientUnits="userSpaceOnUse">
<stop stop-color="#002990"/>
<stop offset="0.47" stop-color="#3D8FDB"/>
<stop offset="1" stop-color="#96D9FF"/>
</linearGradient>
</defs>
</svg>
