<svg width="121" height="65" viewBox="0 0 121 65" fill="none" xmlns="http://www.w3.org/2000/svg">
<path fill-rule="evenodd" clip-rule="evenodd" d="M115.928 1C118.729 1 121 3.27556 121 6.08261C121 8.88965 118.729 11.1652 115.928 11.1652H86.9461C89.7472 11.1652 92.018 13.4408 92.018 16.2478C92.018 19.0549 89.7472 21.3304 86.9461 21.3304H102.886C105.687 21.3304 107.958 23.606 107.958 26.413C107.958 29.2201 105.687 31.4956 102.886 31.4956H95.5147C91.9829 31.4956 89.1198 33.7712 89.1198 36.5783C89.1198 38.4496 90.5689 40.1438 93.4671 41.6609C96.2682 41.6609 98.5389 43.9364 98.5389 46.7435C98.5389 49.5505 96.2682 51.8261 93.4671 51.8261H33.3293C30.5282 51.8261 28.2575 49.5505 28.2575 46.7435C28.2575 43.9364 30.5282 41.6609 33.3293 41.6609H5.07186C2.27075 41.6609 0 39.3853 0 36.5783C0 33.7712 2.27075 31.4956 5.07186 31.4956H34.0539C36.855 31.4956 39.1257 29.2201 39.1257 26.413C39.1257 23.606 36.855 21.3304 34.0539 21.3304H15.9401C13.139 21.3304 10.8683 19.0549 10.8683 16.2478C10.8683 13.4408 13.139 11.1652 15.9401 11.1652H44.9222C42.121 11.1652 39.8503 8.88965 39.8503 6.08261C39.8503 3.27556 42.121 1 44.9222 1H115.928ZM115.928 21.3304C118.729 21.3304 121 23.606 121 26.413C121 29.2201 118.729 31.4956 115.928 31.4956C113.127 31.4956 110.856 29.2201 110.856 26.413C110.856 23.606 113.127 21.3304 115.928 21.3304Z" fill="#F3F7FF"/>
<path d="M53.2545 50.3739C66.6598 50.3739 77.527 39.4837 77.527 26.05C77.527 12.6163 66.6598 1.72609 53.2545 1.72609C39.8492 1.72609 28.9821 12.6163 28.9821 26.05C28.9821 39.4837 39.8492 50.3739 53.2545 50.3739Z" fill="#F3F7FF" stroke="#1F64E7" stroke-width="2.5"/>
<path fill-rule="evenodd" clip-rule="evenodd" d="M49.3652 44.9238C50.6395 45.1595 51.936 45.282 53.2546 45.2913C63.8587 45.2913 72.4552 36.6767 72.4552 26.05C72.4552 15.4233 63.8587 6.8087 53.2546 6.8087C50.5305 6.8087 47.9389 7.37717 45.5916 8.4022C41.5124 10.1835 38.1706 13.3434 36.1522 17.2948C34.8108 19.9211 34.054 22.897 34.054 26.05C34.054 28.9108 34.677 31.6257 35.7944 34.0661C36.5922 35.8083 37.642 37.4105 38.8971 38.8259" fill="white"/>
<path d="M49.3652 44.9238C50.6395 45.1595 51.936 45.282 53.2546 45.2913C63.8587 45.2913 72.4551 36.6767 72.4551 26.05C72.4551 15.4233 63.8587 6.8087 53.2546 6.8087C50.5305 6.8087 47.9389 7.37717 45.5916 8.4022C41.5124 10.1835 38.1706 13.3434 36.1522 17.2948C34.8108 19.9211 34.054 22.897 34.054 26.05C34.054 28.9108 34.677 31.6257 35.7944 34.0661C36.5922 35.8083 37.642 37.4105 38.8971 38.8259" stroke="#1F64E7" stroke-width="2.5" stroke-linecap="round"/>
<path d="M41.1526 40.989C42.709 42.2568 44.4674 43.2851 46.3718 44.0182" stroke="#1F64E7" stroke-width="2.5" stroke-linecap="round"/>
<path d="M73.1796 45.2913L77.5269 49.6478" stroke="#1F64E7" stroke-width="2.5"/>
<path fill-rule="evenodd" clip-rule="evenodd" d="M76.8243 48.9437C75.4529 50.318 75.4529 52.5461 76.8243 53.9204L84.8562 61.9693C86.2275 63.3436 88.451 63.3436 89.8223 61.9693C91.1937 60.595 91.1937 58.3669 89.8223 56.9926L81.7905 48.9437C80.4191 47.5694 78.1957 47.5694 76.8243 48.9437Z" fill="#E8F0FE" stroke="#1F64E7" stroke-width="2.5"/>
<path d="M80.425 50.3739L88.3951 58.3609" stroke="white" stroke-width="2.5" stroke-linecap="round"/>
<path fill-rule="evenodd" clip-rule="evenodd" d="M48.5449 17.7C48.5449 26.1212 55.3572 32.9478 63.7605 32.9478C65.4113 32.9478 67.0007 32.6844 68.4891 32.1972C66.0596 38.2389 60.154 42.5036 53.2545 42.5036C44.1866 42.5036 36.8357 35.1371 36.8357 26.05C36.8357 17.8159 42.8715 10.9944 50.7512 9.78642C49.3513 12.0941 48.5449 14.8027 48.5449 17.7Z" fill="#E8F0FE"/>
<path d="M53.6168 12.6174C52.6942 12.6174 51.7927 12.7083 50.9209 12.8818M48.2876 13.6891C43.331 15.7765 39.8503 20.6874 39.8503 26.413" stroke="#75A4FE" stroke-width="2.5" stroke-linecap="round"/>
<path d="M92.1452 26.2514H86.2215M96.7274 20.6043H84.2827H96.7274ZM101.799 20.6043H100.19H101.799Z" stroke="#75A4FE" stroke-width="2.5" stroke-linecap="round" stroke-linejoin="round"/>
<path d="M26.9358 42.2253H21.012M23.548 35.8522H11.1032H23.548ZM6.8833 35.8522H3.82483H6.8833Z" stroke="#75A4FE" stroke-width="2.5" stroke-linecap="round" stroke-linejoin="round"/>
</svg>
