<svg width="154" height="65" viewBox="0 0 154 65" fill="none" xmlns="http://www.w3.org/2000/svg">
<path fill-rule="evenodd" clip-rule="evenodd" d="M32.7816 58.2989H97.6322C97.9991 58.2989 98.3568 58.2593 98.7011 58.1841C99.0455 58.2593 99.4032 58.2989 99.7701 58.2989H136.828C139.583 58.2989 141.816 56.0654 141.816 53.3104C141.816 50.5553 139.583 48.3219 136.828 48.3219H132.552C129.797 48.3219 127.563 46.0884 127.563 43.3334C127.563 40.5783 129.797 38.3449 132.552 38.3449H146.092C148.847 38.3449 151.08 36.1114 151.08 33.3563C151.08 30.6013 148.847 28.3678 146.092 28.3678H130.414C133.169 28.3678 135.402 26.1344 135.402 23.3793C135.402 20.6243 133.169 18.3908 130.414 18.3908H84.8046C87.5597 18.3908 89.7931 16.1574 89.7931 13.4023C89.7931 10.6472 87.5597 8.41382 84.8046 8.41382H44.1839C41.4288 8.41382 39.1954 10.6472 39.1954 13.4023C39.1954 16.1574 41.4288 18.3908 44.1839 18.3908H15.6782C12.9231 18.3908 10.6897 20.6243 10.6897 23.3793C10.6897 26.1344 12.9231 28.3678 15.6782 28.3678H33.4943C36.2493 28.3678 38.4828 30.6013 38.4828 33.3563C38.4828 36.1114 36.2493 38.3449 33.4943 38.3449H4.98851C2.23343 38.3449 0 40.5783 0 43.3334C0 46.0884 2.23343 48.3219 4.98851 48.3219H32.7816C30.0265 48.3219 27.7931 50.5553 27.7931 53.3104C27.7931 56.0654 30.0265 58.2989 32.7816 58.2989ZM148.943 58.2989C151.698 58.2989 153.931 56.0654 153.931 53.3103C153.931 50.5553 151.698 48.3218 148.943 48.3218C146.187 48.3218 143.954 50.5553 143.954 53.3103C143.954 56.0654 146.187 58.2989 148.943 58.2989Z" fill="#F3F7FF"/>
<path fill-rule="evenodd" clip-rule="evenodd" d="M68.4982 43.5519C68.4425 43.9461 68.4137 44.349 68.4137 44.7587C68.4137 49.4816 72.2425 53.3104 76.9655 53.3104C81.6884 53.3104 85.5172 49.4816 85.5172 44.7587C85.5172 44.349 85.4884 43.9461 85.4327 43.5519H106.184V62.1333C105.828 63.3096 105.115 64 104.046 64H49.885C48.7043 64 48.1034 63.2874 47.7471 62.2184V43.5519H68.4982Z" fill="white"/>
<path fill-rule="evenodd" clip-rule="evenodd" d="M86.2298 43.3333C86.2298 48.4499 82.082 52.5977 76.9655 52.5977C71.8489 52.5977 67.7011 48.4499 67.7011 43.3333C67.7011 43.1676 67.7054 43.0028 67.714 42.8392H47.7471L54.5603 22.6944C54.854 21.8259 55.6687 21.2414 56.5855 21.2414H97.3454C98.2622 21.2414 99.0769 21.8259 99.3707 22.6944L106.184 42.8392H86.2169C86.2255 43.0028 86.2298 43.1676 86.2298 43.3333Z" fill="white"/>
<path fill-rule="evenodd" clip-rule="evenodd" d="M84.8741 44.0136C84.8741 47.9673 81.3333 51.885 76.9655 51.885C72.5977 51.885 69.0569 47.9673 69.0569 44.0136C69.0569 43.8855 69.0606 43.0455 69.0679 42.9191H54.1609L59.977 28.7779C60.2278 28.1068 60.9233 27.6552 61.7059 27.6552H92.2251C93.0077 27.6552 93.7032 28.1068 93.954 28.7779L99.7701 42.9191H84.863C84.8704 43.0455 84.8741 43.8855 84.8741 44.0136Z" fill="#E8F0FE"/>
<path fill-rule="evenodd" clip-rule="evenodd" d="M48.6379 42.9858V61.8621C48.6379 62.5509 49.1963 63.1092 49.8851 63.1092H104.046C104.735 63.1092 105.293 62.5509 105.293 61.8621V42.9858L98.5269 22.9798C98.3555 22.4732 97.8803 22.1322 97.3455 22.1322H56.5856C56.0508 22.1322 55.5755 22.4732 55.4042 22.9798L48.6379 42.9858Z" stroke="#1F64E7" stroke-width="2.5"/>
<path d="M57.7242 42.6207C60.5295 42.6207 63.5571 42.6207 66.8067 42.6207C68.1439 42.6207 68.1439 43.5604 68.1439 44.046C68.1439 48.769 72.0607 52.5977 76.8923 52.5977C81.724 52.5977 85.6408 48.769 85.6408 44.046C85.6408 43.5604 85.6408 42.6207 86.9779 42.6207H104.759M52.4319 42.6207H54.161H52.4319Z" stroke="#1F64E7" stroke-width="2.5" stroke-linecap="round" stroke-linejoin="round"/>
<path d="M94.8526 5.06632L86.9425 13.941M76.3238 2V13.941V2ZM57.7241 5.06632L65.6342 13.941L57.7241 5.06632Z" stroke="#75A4FE" stroke-width="2.5" stroke-linecap="round" stroke-linejoin="round"/>
</svg>
