<svg width="130" height="52" viewBox="0 0 130 52" fill="none" xmlns="http://www.w3.org/2000/svg">
<g clip-path="url(#clip0_249_13)">
<path d="M18.4453 16.4609H15.8438V9.33594H11.7656V7.17969H15.8438V0.921875H18.4453V16.4609ZM0.984375 12.1484C2.50781 11.6641 3.84375 11.0508 4.99219 10.3086C6.14062 9.55859 7.0625 8.70703 7.75781 7.75391C8.46094 6.79297 8.89453 5.75781 9.05859 4.64844H2.08594V2.51562H11.9062C11.9062 4.35937 11.5156 6.04688 10.7344 7.57812C9.95312 9.10938 8.82812 10.4375 7.35938 11.5625C5.89062 12.6875 4.13281 13.5781 2.08594 14.2344L0.984375 12.1484ZM4.64062 14.8906H7.28906V19.5547H18.9844V21.6641H4.64062V14.8906ZM38.1562 6.05469H41.1094V8.1875H38.1562V13.3203H35.5547V0.898438H38.1562V6.05469ZM21.375 11.5391C22.9609 11.1094 24.332 10.543 25.4883 9.83984C26.6523 9.13672 27.5703 8.33203 28.2422 7.42578C28.9141 6.51172 29.3242 5.52344 29.4727 4.46094H22.3359V2.35156H32.2969C32.2969 4.1875 31.9102 5.85156 31.1367 7.34375C30.3633 8.82812 29.2383 10.1016 27.7617 11.1641C26.2852 12.2266 24.5 13.0547 22.4062 13.6484L21.375 11.5391ZM24.2344 17.8203C24.2266 16.9609 24.5156 16.2109 25.1016 15.5703C25.6875 14.9297 26.5156 14.4375 27.5859 14.0938C28.6562 13.75 29.8984 13.5781 31.3125 13.5781C32.7344 13.5781 33.9766 13.75 35.0391 14.0938C36.1094 14.4375 36.9336 14.9297 37.5117 15.5703C38.0977 16.2109 38.3906 16.9609 38.3906 17.8203C38.3906 18.6875 38.0977 19.4414 37.5117 20.082C36.9336 20.7227 36.1094 21.2109 35.0391 21.5469C33.9766 21.8906 32.7344 22.0625 31.3125 22.0625C29.8984 22.0625 28.6562 21.8906 27.5859 21.5469C26.5156 21.2109 25.6875 20.7227 25.1016 20.082C24.5156 19.4414 24.2266 18.6875 24.2344 17.8203ZM26.8125 17.8203C26.8125 18.2734 26.9922 18.668 27.3516 19.0039C27.7109 19.332 28.2266 19.5859 28.8984 19.7656C29.5781 19.9375 30.3828 20.0234 31.3125 20.0234C32.2344 20.0234 33.0352 19.9375 33.7148 19.7656C34.3945 19.5859 34.918 19.332 35.2852 19.0039C35.6523 18.668 35.8359 18.2734 35.8359 17.8203C35.8281 17.125 35.4219 16.5859 34.6172 16.2031C33.8125 15.8125 32.7109 15.6172 31.3125 15.6172C30.3828 15.6172 29.5781 15.7031 28.8984 15.875C28.2266 16.0469 27.7109 16.3008 27.3516 16.6367C26.9922 16.9648 26.8125 17.3594 26.8125 17.8203ZM49.0547 2.375C50.1641 2.375 51.1602 2.59375 52.043 3.03125C52.9258 3.46094 53.6172 4.06641 54.1172 4.84766C54.625 5.62109 54.8828 6.5 54.8906 7.48438C54.8828 8.47656 54.625 9.36328 54.1172 10.1445C53.6172 10.918 52.9258 11.5234 52.043 11.9609C51.1602 12.3984 50.1641 12.6172 49.0547 12.6172C47.9531 12.6172 46.957 12.3984 46.0664 11.9609C45.1836 11.5234 44.4922 10.9141 43.9922 10.1328C43.4922 9.35156 43.2422 8.46875 43.2422 7.48438C43.2422 6.5 43.4922 5.62109 43.9922 4.84766C44.5 4.06641 45.1953 3.46094 46.0781 3.03125C46.9609 2.59375 47.9531 2.375 49.0547 2.375ZM42.2812 15.5469C44.875 15.5469 47.2969 15.5039 49.5469 15.418C51.7969 15.3242 53.9375 15.1328 55.9688 14.8438L56.1797 16.7422C54.0859 17.1406 51.9492 17.3984 49.7695 17.5156C47.5977 17.625 45.2109 17.6797 42.6094 17.6797L42.2812 15.5469ZM45.8203 7.48438C45.8203 8.0625 45.957 8.57031 46.2305 9.00781C46.5117 9.4375 46.8984 9.76953 47.3906 10.0039C47.8828 10.2305 48.4375 10.3438 49.0547 10.3438C49.6797 10.3438 50.2383 10.2305 50.7305 10.0039C51.2305 9.76953 51.6211 9.4375 51.9023 9.00781C52.1914 8.57031 52.3359 8.0625 52.3359 7.48438C52.3359 6.90625 52.1914 6.40234 51.9023 5.97266C51.6211 5.54297 51.2305 5.21094 50.7305 4.97656C50.2383 4.74219 49.6797 4.625 49.0547 4.625C48.4375 4.625 47.8828 4.74219 47.3906 4.97656C46.8984 5.21094 46.5117 5.54688 46.2305 5.98438C45.957 6.41406 45.8203 6.91406 45.8203 7.48438ZM57.2344 0.898438H59.8359V22.1094H57.2344V0.898438ZM119.742 1.22656C121.352 1.22656 122.727 1.36719 123.867 1.64844C125.008 1.92969 125.879 2.34375 126.48 2.89062C127.082 3.42969 127.383 4.08594 127.383 4.85938C127.383 5.64062 127.082 6.30469 126.48 6.85156C125.879 7.39844 125.008 7.8125 123.867 8.09375C122.727 8.36719 121.352 8.50781 119.742 8.51562C118.133 8.50781 116.758 8.36719 115.617 8.09375C114.477 7.8125 113.605 7.39844 113.004 6.85156C112.402 6.30469 112.102 5.64062 112.102 4.85938C112.102 4.08594 112.402 3.42969 113.004 2.89062C113.605 2.34375 114.477 1.93359 115.617 1.66016C116.758 1.37891 118.133 1.23438 119.742 1.22656ZM110.109 9.64062H129.422V11.7266H110.109V9.64062ZM112.383 13.1562H127.008V18.3359H114.961V19.9062H127.594V21.8984H112.406V16.4844H124.453V15.0781H112.383V13.1562ZM114.844 4.85938C114.836 5.4375 115.242 5.86719 116.062 6.14844C116.883 6.42969 118.109 6.57031 119.742 6.57031C121.391 6.57031 122.625 6.42969 123.445 6.14844C124.273 5.86719 124.688 5.4375 124.688 4.85938C124.688 4.3125 124.266 3.89062 123.422 3.59375C122.586 3.29688 121.359 3.14844 119.742 3.14844C118.141 3.14844 116.922 3.29688 116.086 3.59375C115.25 3.89062 114.836 4.3125 114.844 4.85938ZM17.4844 36.0859H20.3438V38.2422H17.4844V44.2422H14.8828V29.9219H17.4844V36.0859ZM0.515625 41.7109C2.48438 41.7109 4.26562 41.6914 5.85938 41.6523V40.3516C4.67188 40.2031 3.73047 39.8555 3.03516 39.3086C2.34766 38.7617 2.00781 38.0781 2.01562 37.2578C2.01562 36.6172 2.22656 36.0586 2.64844 35.582C3.07031 35.1055 3.66406 34.7422 4.42969 34.4922C5.20312 34.2422 6.10156 34.1172 7.125 34.1172C8.14844 34.1172 9.04297 34.2422 9.80859 34.4922C10.582 34.7422 11.1797 35.1055 11.6016 35.582C12.0234 36.0586 12.2344 36.6172 12.2344 37.2578C12.2344 38.0781 11.8984 38.7578 11.2266 39.2969C10.5547 39.8359 9.63281 40.1836 8.46094 40.3398V41.5586C10.4844 41.457 12.2578 41.3047 13.7812 41.1016L13.9922 42.9062C11.9922 43.2578 9.92578 43.4883 7.79297 43.5977C5.66016 43.6992 3.32812 43.75 0.796875 43.75L0.515625 41.7109ZM1.05469 31.5859H5.85938V29.7344H8.46094V31.5859H13.2188V33.5078H1.05469V31.5859ZM3.1875 45.1562H17.4844V51.0859H14.8828V47.1953H3.1875V45.1562ZM4.52344 37.2578C4.50781 37.7031 4.73438 38.0508 5.20312 38.3008C5.67188 38.5508 6.3125 38.6719 7.125 38.6641C7.9375 38.6719 8.57812 38.5508 9.04688 38.3008C9.51562 38.0508 9.75 37.7031 9.75 37.2578C9.75 36.8047 9.52344 36.4609 9.07031 36.2266C8.625 35.9922 7.99609 35.875 7.18359 35.875C6.32422 35.875 5.66406 35.9922 5.20312 36.2266C4.74219 36.4531 4.51562 36.7969 4.52344 37.2578ZM39.0938 45.2266H36.4688V29.9219H39.0938V45.2266ZM21.8203 36.6016C21.8203 35.5938 22.0703 34.6875 22.5703 33.8828C23.0781 33.0781 23.7656 32.4492 24.6328 31.9961C25.5078 31.5352 26.4766 31.3047 27.5391 31.3047C28.6016 31.3047 29.5664 31.5352 30.4336 31.9961C31.3086 32.4492 31.9922 33.0781 32.4844 33.8828C32.9844 34.6875 33.2344 35.5938 33.2344 36.6016C33.2344 37.625 32.9844 38.543 32.4844 39.3555C31.9922 40.1602 31.3086 40.7891 30.4336 41.2422C29.5664 41.6953 28.6016 41.9219 27.5391 41.9219C26.4766 41.9219 25.5078 41.6953 24.6328 41.2422C23.7656 40.7891 23.0781 40.1602 22.5703 39.3555C22.0703 38.543 21.8203 37.625 21.8203 36.6016ZM24.375 36.6016C24.375 37.2109 24.5078 37.7461 24.7734 38.207C25.0469 38.668 25.4219 39.0234 25.8984 39.2734C26.3828 39.5234 26.9297 39.6484 27.5391 39.6484C28.1328 39.6484 28.668 39.5234 29.1445 39.2734C29.6211 39.0234 29.9961 38.668 30.2695 38.207C30.543 37.7461 30.6797 37.2109 30.6797 36.6016C30.6797 36.0078 30.543 35.4805 30.2695 35.0195C29.9961 34.5586 29.6172 34.2031 29.1328 33.9531C28.6562 33.7031 28.125 33.5781 27.5391 33.5781C26.9375 33.5781 26.3945 33.7031 25.9102 33.9531C25.4258 34.2031 25.0469 34.5586 24.7734 35.0195C24.5078 35.4805 24.375 36.0078 24.375 36.6016ZM25.0781 43.6797H27.7031V48.5547H39.6797V50.6641H25.0781V43.6797ZM52.5234 35.3594H42.1406V33.2734H46.0781V30.5078H48.6562V33.2734H52.5234V35.3594ZM42.75 41.4062C42.7422 40.4609 42.9336 39.6133 43.3242 38.8633C43.7227 38.1133 44.2734 37.5312 44.9766 37.1172C45.6875 36.6953 46.4844 36.4844 47.3672 36.4844C48.2578 36.4844 49.0508 36.6953 49.7461 37.1172C50.4492 37.5312 50.9961 38.1133 51.3867 38.8633C51.7852 39.6133 51.9844 40.4609 51.9844 41.4062C51.9844 42.375 51.7852 43.2383 51.3867 43.9961C50.9961 44.7539 50.4492 45.3438 49.7461 45.7656C49.0508 46.1875 48.2578 46.3984 47.3672 46.3984C46.4844 46.3984 45.6875 46.1875 44.9766 45.7656C44.2734 45.3438 43.7227 44.7539 43.3242 43.9961C42.9336 43.2383 42.7422 42.375 42.75 41.4062ZM45.0469 41.4062C45.0469 41.9688 45.1406 42.4609 45.3281 42.8828C45.5234 43.2969 45.7969 43.6172 46.1484 43.8438C46.5078 44.0625 46.9141 44.1719 47.3672 44.1719C47.8203 44.1719 48.2227 44.0625 48.5742 43.8438C48.9258 43.6172 49.1992 43.2969 49.3945 42.8828C49.5898 42.4609 49.6875 41.9688 49.6875 41.4062C49.6875 40.8594 49.5898 40.3789 49.3945 39.9648C49.1992 39.543 48.9258 39.2188 48.5742 38.9922C48.2227 38.7578 47.8203 38.6406 47.3672 38.6406C46.9141 38.6406 46.5117 38.7578 46.1602 38.9922C45.8086 39.2188 45.5352 39.543 45.3398 39.9648C45.1445 40.3789 45.0469 40.8594 45.0469 41.4062ZM53.4141 30.3438H55.8516V38.6172H57.9141V29.8984H60.3984V51.0859H57.9141V40.7266H55.8516V50.125H53.4141V30.3438ZM82.2891 48.5312H62.9297V46.3984H71.2734V42.2734H65.0625V31.3047H67.6641V34.7734H77.4844V31.3047H80.0859V42.2734H73.8516V46.3984H82.2891V48.5312ZM77.4844 40.1641V36.8594H67.6641V40.1641H77.4844ZM90.2812 35.4531C90.2891 36.6406 90.4336 37.793 90.7148 38.9102C91.0039 40.0273 91.4492 41.0508 92.0508 41.9805C92.6523 42.9102 93.4141 43.6641 94.3359 44.2422L92.9062 46.2344C91.9844 45.6797 91.2031 44.9375 90.5625 44.0078C89.9219 43.0781 89.418 42.0117 89.0508 40.8086C88.6602 42.1289 88.1172 43.2969 87.4219 44.3125C86.7344 45.3281 85.9062 46.1328 84.9375 46.7266L83.3203 44.7812C84.3125 44.1797 85.1406 43.3945 85.8047 42.4258C86.4688 41.4492 86.9609 40.375 87.2812 39.2031C87.6016 38.0234 87.7656 36.8125 87.7734 35.5703V31.7734H90.2812V35.4531ZM92.0625 37.1875H95.0859V30.2734H97.5469V50.0547H95.0859V39.3438H92.0625V37.1875ZM99.4453 29.8984H101.953V51.0859H99.4453V29.8984ZM123.773 48.5078H104.414V46.375H108.891V41.0195C108.031 40.5273 107.363 39.9062 106.887 39.1562C106.418 38.4062 106.188 37.5703 106.195 36.6484C106.195 35.5391 106.527 34.5625 107.191 33.7188C107.863 32.8672 108.797 32.2109 109.992 31.75C111.188 31.2812 112.539 31.0469 114.047 31.0469C115.562 31.0469 116.918 31.2812 118.113 31.75C119.316 32.2109 120.254 32.8672 120.926 33.7188C121.605 34.5625 121.945 35.5391 121.945 36.6484C121.953 37.5547 121.727 38.375 121.266 39.1094C120.805 39.8438 120.156 40.4609 119.32 40.9609V46.375H123.773V48.5078ZM108.75 36.6484C108.75 37.3594 108.969 37.9844 109.406 38.5234C109.852 39.0547 110.473 39.4648 111.27 39.7539C112.074 40.043 113 40.1875 114.047 40.1875C115.094 40.1875 116.02 40.043 116.824 39.7539C117.637 39.4648 118.266 39.0547 118.711 38.5234C119.164 37.9844 119.391 37.3594 119.391 36.6484C119.391 35.9297 119.164 35.3008 118.711 34.7617C118.266 34.2227 117.637 33.8125 116.824 33.5312C116.02 33.25 115.094 33.1094 114.047 33.1094C112.992 33.1094 112.062 33.25 111.258 33.5312C110.461 33.8125 109.844 34.2227 109.406 34.7617C108.969 35.293 108.75 35.9219 108.75 36.6484ZM116.672 46.375V41.957C115.844 42.1367 114.969 42.2266 114.047 42.2266C113.164 42.2266 112.305 42.1406 111.469 41.9688V46.375H116.672ZM129.258 44.0078H126.609L126.328 32.0312H129.516L129.258 44.0078ZM126.117 47.3594C126.117 47.0391 126.199 46.7422 126.363 46.4688C126.527 46.1875 126.75 45.9648 127.031 45.8008C127.312 45.6367 127.617 45.5547 127.945 45.5547C128.266 45.5547 128.562 45.6367 128.836 45.8008C129.117 45.9648 129.34 46.1875 129.504 46.4688C129.668 46.7422 129.75 47.0391 129.75 47.3594C129.75 47.6875 129.668 47.9922 129.504 48.2734C129.34 48.5547 129.117 48.7773 128.836 48.9414C128.562 49.1055 128.266 49.1875 127.945 49.1875C127.617 49.1875 127.312 49.1055 127.031 48.9414C126.75 48.7773 126.527 48.5547 126.363 48.2734C126.199 47.9922 126.117 47.6875 126.117 47.3594Z" fill="black"/>
<path d="M87.2578 6.10157H69.2812V3.42969H76.5703V1.01562H79.9453V3.42969H87.2578V6.10157ZM68.4844 17.3516H88.1484V20.0469H68.4844V17.3516ZM70.8047 11.3047C70.8047 10.3984 71.1055 9.6172 71.707 8.96095C72.3164 8.3047 73.1797 7.80079 74.2969 7.44923C75.4219 7.09767 76.7422 6.92188 78.2578 6.92188C79.75 6.92188 81.0547 7.09767 82.1719 7.44923C83.2891 7.80079 84.1484 8.3047 84.75 8.96095C85.3594 9.6172 85.6641 10.3984 85.6641 11.3047C85.6641 12.2109 85.3594 12.9961 84.75 13.6602C84.1484 14.3242 83.2891 14.832 82.1719 15.1836C81.0547 15.5352 79.75 15.7109 78.2578 15.7109C76.7422 15.7109 75.4219 15.5352 74.2969 15.1836C73.1797 14.832 72.3164 14.3242 71.707 13.6602C71.1055 12.9961 70.8047 12.2109 70.8047 11.3047ZM74.25 11.3047C74.25 12.4609 75.5586 13.0391 78.1758 13.0391C79.5039 13.0391 80.5039 12.8984 81.1758 12.6172C81.8555 12.3359 82.1953 11.8984 82.1953 11.3047C82.1953 10.1484 80.8828 9.57031 78.2578 9.57031C76.9297 9.57031 75.9297 9.71484 75.2578 10.0039C74.5859 10.2852 74.25 10.7188 74.25 11.3047ZM108.867 14.1406H89.2031V11.5156H108.867V14.1406ZM91.5938 1.10939H106.547V7.0625H94.9688V8.02345H106.922V10.5781H91.6172V4.64844H103.148V3.68751H91.5938V1.10939ZM91.6875 15.2891H106.641V22.0156H91.6875V15.2891ZM103.312 19.3203V17.9375H94.9922V19.3203H103.312Z" fill="url(#paint0_linear_249_13)"/>
</g>
<defs>
<linearGradient id="paint0_linear_249_13" x1="70.5" y1="5" x2="106.5" y2="22.5" gradientUnits="userSpaceOnUse">
<stop stop-color="#002990"/>
<stop offset="0.509369" stop-color="#3D8FDB"/>
<stop offset="1" stop-color="#96D9FF"/>
</linearGradient>
<clipPath id="clip0_249_13">
<rect width="130" height="52" fill="white"/>
</clipPath>
</defs>
</svg>
