<svg width="78" height="78" viewBox="0 0 78 78" fill="none" xmlns="http://www.w3.org/2000/svg">
<path d="M49.9754 6.47296C49.5241 6.0217 48.9121 5.76819 48.2739 5.76819H16.3463C14.4858 5.76819 12.9775 7.27643 12.9775 9.13692V69.5676C12.9775 71.4282 14.4858 72.9364 16.3463 72.9364H62.3583C64.2188 72.9364 65.7271 71.4282 65.7271 69.5676V23.2214C65.7271 22.5832 65.4735 21.9711 65.0223 21.5199L49.9754 6.47296Z" fill="url(#paint0_linear_1161_1142)"/>
<path d="M49.9754 6.47296C49.5241 6.0217 48.9121 5.76819 48.2739 5.76819H16.3463C14.4858 5.76819 12.9775 7.27643 12.9775 9.13692V69.5676C12.9775 71.4282 14.4858 72.9364 16.3463 72.9364H62.3583C64.2188 72.9364 65.7271 71.4282 65.7271 69.5676V23.2214C65.7271 22.5832 65.4735 21.9711 65.0223 21.5199L49.9754 6.47296Z" fill="url(#paint1_linear_1161_1142)"/>
<path d="M49.9754 6.47296C49.5241 6.0217 48.9121 5.76819 48.2739 5.76819H16.3463C14.4858 5.76819 12.9775 7.27643 12.9775 9.13692V69.5676C12.9775 71.4282 14.4858 72.9364 16.3463 72.9364H62.3583C64.2188 72.9364 65.7271 71.4282 65.7271 69.5676V23.2214C65.7271 22.5832 65.4735 21.9711 65.0223 21.5199L49.9754 6.47296Z" fill="url(#paint2_linear_1161_1142)"/>
<path d="M49.9754 6.47296C49.5241 6.0217 48.9121 5.76819 48.2739 5.76819H16.3463C14.4858 5.76819 12.9775 7.27643 12.9775 9.13692V69.5676C12.9775 71.4282 14.4858 72.9364 16.3463 72.9364H62.3583C64.2188 72.9364 65.7271 71.4282 65.7271 69.5676V23.2214C65.7271 22.5832 65.4735 21.9711 65.0223 21.5199L49.9754 6.47296Z" fill="url(#paint3_linear_1161_1142)" fill-opacity="0.13"/>
<path d="M49.9754 6.47296C49.5241 6.0217 48.9121 5.76819 48.2739 5.76819H16.3463C14.4858 5.76819 12.9775 7.27643 12.9775 9.13692V69.5676C12.9775 71.4282 14.4858 72.9364 16.3463 72.9364H62.3583C64.2188 72.9364 65.7271 71.4282 65.7271 69.5676V23.2214C65.7271 22.5832 65.4735 21.9711 65.0223 21.5199L49.9754 6.47296Z" fill="url(#paint4_linear_1161_1142)"/>
<path d="M49.9754 6.47296C49.5241 6.0217 48.9121 5.76819 48.2739 5.76819H16.3463C14.4858 5.76819 12.9775 7.27643 12.9775 9.13692V69.5676C12.9775 71.4282 14.4858 72.9364 16.3463 72.9364H62.3583C64.2188 72.9364 65.7271 71.4282 65.7271 69.5676V23.2214C65.7271 22.5832 65.4735 21.9711 65.0223 21.5199L49.9754 6.47296Z" fill="url(#paint5_linear_1161_1142)"/>
<path d="M49.9754 6.47296C49.5241 6.0217 48.9121 5.76819 48.2739 5.76819H16.3463C14.4858 5.76819 12.9775 7.27643 12.9775 9.13692V69.5676C12.9775 71.4282 14.4858 72.9364 16.3463 72.9364H62.3583C64.2188 72.9364 65.7271 71.4282 65.7271 69.5676V23.2214C65.7271 22.5832 65.4735 21.9711 65.0223 21.5199L49.9754 6.47296Z" fill="url(#paint6_radial_1161_1142)"/>
<path d="M49.9754 6.47296C49.5241 6.0217 48.9121 5.76819 48.2739 5.76819H16.3463C14.4858 5.76819 12.9775 7.27643 12.9775 9.13692V69.5676C12.9775 71.4282 14.4858 72.9364 16.3463 72.9364H62.3583C64.2188 72.9364 65.7271 71.4282 65.7271 69.5676V23.2214C65.7271 22.5832 65.4735 21.9711 65.0223 21.5199L49.9754 6.47296Z" fill="url(#paint7_radial_1161_1142)"/>
<path d="M49.9754 6.47296C49.5241 6.0217 48.9121 5.76819 48.2739 5.76819H16.3463C14.4858 5.76819 12.9775 7.27643 12.9775 9.13692V69.5676C12.9775 71.4282 14.4858 72.9364 16.3463 72.9364H62.3583C64.2188 72.9364 65.7271 71.4282 65.7271 69.5676V23.2214C65.7271 22.5832 65.4735 21.9711 65.0223 21.5199L49.9754 6.47296Z" fill="url(#paint8_radial_1161_1142)"/>
<path d="M49.9754 6.47296C49.5241 6.0217 48.9121 5.76819 48.2739 5.76819H16.3463C14.4858 5.76819 12.9775 7.27643 12.9775 9.13692V69.5676C12.9775 71.4282 14.4858 72.9364 16.3463 72.9364H62.3583C64.2188 72.9364 65.7271 71.4282 65.7271 69.5676V23.2214C65.7271 22.5832 65.4735 21.9711 65.0223 21.5199L49.9754 6.47296Z" fill="url(#paint9_linear_1161_1142)"/>
<path d="M49.9754 6.47296C49.5241 6.0217 48.9121 5.76819 48.2739 5.76819H16.3463C14.4858 5.76819 12.9775 7.27643 12.9775 9.13692V69.5676C12.9775 71.4282 14.4858 72.9364 16.3463 72.9364H62.3583C64.2188 72.9364 65.7271 71.4282 65.7271 69.5676V23.2214C65.7271 22.5832 65.4735 21.9711 65.0223 21.5199L49.9754 6.47296Z" fill="url(#paint10_linear_1161_1142)"/>
<path d="M49.9754 6.47296C49.5241 6.0217 48.9121 5.76819 48.2739 5.76819H16.3463C14.4858 5.76819 12.9775 7.27643 12.9775 9.13692V69.5676C12.9775 71.4282 14.4858 72.9364 16.3463 72.9364H62.3583C64.2188 72.9364 65.7271 71.4282 65.7271 69.5676V23.2214C65.7271 22.5832 65.4735 21.9711 65.0223 21.5199L49.9754 6.47296Z" fill="url(#paint11_linear_1161_1142)" fill-opacity="0.55"/>
<path d="M49.9754 6.47296C49.5241 6.0217 48.9121 5.76819 48.2739 5.76819H16.3463C14.4858 5.76819 12.9775 7.27643 12.9775 9.13692V69.5676C12.9775 71.4282 14.4858 72.9364 16.3463 72.9364H62.3583C64.2188 72.9364 65.7271 71.4282 65.7271 69.5676V23.2214C65.7271 22.5832 65.4735 21.9711 65.0223 21.5199L49.9754 6.47296Z" fill="url(#paint12_linear_1161_1142)" fill-opacity="0.55"/>
<path d="M49.9754 6.47296C49.5241 6.0217 48.9121 5.76819 48.2739 5.76819H16.3463C14.4858 5.76819 12.9775 7.27643 12.9775 9.13692V69.5676C12.9775 71.4282 14.4858 72.9364 16.3463 72.9364H62.3583C64.2188 72.9364 65.7271 71.4282 65.7271 69.5676V23.2214C65.7271 22.5832 65.4735 21.9711 65.0223 21.5199L49.9754 6.47296Z" fill="url(#paint13_linear_1161_1142)"/>
<path d="M46.4637 6.76443C46.4637 6.27981 46.6028 5.87019 46.3391 5.81839C46.5897 5.83436 48.6861 5.63653 48.9116 5.89968C49.2082 6.0161 49.03 6.48938 49.2622 6.71607C49.2689 6.72268 49.2757 6.72933 49.2824 6.73605L64.3292 21.783C64.3751 21.8288 64.4189 21.8764 64.4606 21.9254C64.666 22.1669 64.7719 22.1142 64.8684 22.4124C64.9452 22.6496 65.4965 22.1585 65.4965 22.4124L65.6814 22.782V23.2979C65.6814 23.2979 65.7971 23.9015 65.4965 23.9015L49.9221 25.6371C47.449 25.6371 45.12 22.7944 45.12 21.1997L46.4637 6.76443Z" fill="url(#paint14_linear_1161_1142)"/>
<path d="M46.4637 6.76443C46.4637 6.27981 46.6028 5.87019 46.3391 5.81839C46.5897 5.83436 48.6861 5.63653 48.9116 5.89968C49.2082 6.0161 49.03 6.48938 49.2622 6.71607C49.2689 6.72268 49.2757 6.72933 49.2824 6.73605L64.3292 21.783C64.3751 21.8288 64.4189 21.8764 64.4606 21.9254C64.666 22.1669 64.7719 22.1142 64.8684 22.4124C64.9452 22.6496 65.4965 22.1585 65.4965 22.4124L65.6814 22.782V23.2979C65.6814 23.2979 65.7971 23.9015 65.4965 23.9015L49.9221 25.6371C47.449 25.6371 45.12 22.7944 45.12 21.1997L46.4637 6.76443Z" fill="url(#paint15_linear_1161_1142)"/>
<path d="M46.4637 6.76443C46.4637 6.27981 46.6028 5.87019 46.3391 5.81839C46.5897 5.83436 48.6861 5.63653 48.9116 5.89968C49.2082 6.0161 49.03 6.48938 49.2622 6.71607C49.2689 6.72268 49.2757 6.72933 49.2824 6.73605L64.3292 21.783C64.3751 21.8288 64.4189 21.8764 64.4606 21.9254C64.666 22.1669 64.7719 22.1142 64.8684 22.4124C64.9452 22.6496 65.4965 22.1585 65.4965 22.4124L65.6814 22.782V23.2979C65.6814 23.2979 65.7971 23.9015 65.4965 23.9015L49.9221 25.6371C47.449 25.6371 45.12 22.7944 45.12 21.1997L46.4637 6.76443Z" fill="url(#paint16_linear_1161_1142)"/>
<path d="M49.0714 6.50122C49.0714 6.0166 48.6911 5.82476 48.4274 5.77295C48.6781 5.78892 48.9229 5.84392 49.1535 5.9345C49.4501 6.05093 49.7232 6.22618 49.9553 6.45286C49.9621 6.45947 49.9689 6.46612 49.9755 6.47284L65.0224 21.5198C65.0683 21.5656 65.1121 21.6132 65.1538 21.6622C65.3592 21.9037 65.5137 22.182 65.6103 22.4802C65.6871 22.7174 65.7272 22.9673 65.7272 23.2212V23.3732C65.7272 22.8144 65.323 22.4802 65.0224 22.4802H51.959C50.3642 22.4802 49.0714 21.1874 49.0714 19.5927V6.50122Z" fill="url(#paint17_linear_1161_1142)"/>
<path d="M49.0714 6.50122C49.0714 6.0166 48.6911 5.82476 48.4274 5.77295C48.6781 5.78892 48.9229 5.84392 49.1535 5.9345C49.4501 6.05093 49.7232 6.22618 49.9553 6.45286C49.9621 6.45947 49.9689 6.46612 49.9755 6.47284L65.0224 21.5198C65.0683 21.5656 65.1121 21.6132 65.1538 21.6622C65.3592 21.9037 65.5137 22.182 65.6103 22.4802C65.6871 22.7174 65.7272 22.9673 65.7272 23.2212V23.3732C65.7272 22.8144 65.323 22.4802 65.0224 22.4802H51.959C50.3642 22.4802 49.0714 21.1874 49.0714 19.5927V6.50122Z" fill="url(#paint18_linear_1161_1142)"/>
<path d="M49.0714 6.50122C49.0714 6.0166 48.6911 5.82476 48.4274 5.77295C48.6781 5.78892 48.9229 5.84392 49.1535 5.9345C49.4501 6.05093 49.7232 6.22618 49.9553 6.45286C49.9621 6.45947 49.9689 6.46612 49.9755 6.47284L65.0224 21.5198C65.0683 21.5656 65.1121 21.6132 65.1538 21.6622C65.3592 21.9037 65.5137 22.182 65.6103 22.4802C65.6871 22.7174 65.7272 22.9673 65.7272 23.2212V23.3732C65.7272 22.8144 65.323 22.4802 65.0224 22.4802H51.959C50.3642 22.4802 49.0714 21.1874 49.0714 19.5927V6.50122Z" fill="url(#paint19_linear_1161_1142)"/>
<path d="M49.0714 6.50122C49.0714 6.0166 48.6911 5.82476 48.4274 5.77295C48.6781 5.78892 48.9229 5.84392 49.1535 5.9345C49.4501 6.05093 49.7232 6.22618 49.9553 6.45286C49.9621 6.45947 49.9689 6.46612 49.9755 6.47284L65.0224 21.5198C65.0683 21.5656 65.1121 21.6132 65.1538 21.6622C65.3592 21.9037 65.5137 22.182 65.6103 22.4802C65.6871 22.7174 65.7272 22.9673 65.7272 23.2212V23.3732C65.7272 22.8144 65.323 22.4802 65.0224 22.4802H51.959C50.3642 22.4802 49.0714 21.1874 49.0714 19.5927V6.50122Z" fill="url(#paint20_linear_1161_1142)"/>
<path d="M49.0714 6.50122C49.0714 6.0166 48.6911 5.82476 48.4274 5.77295C48.6781 5.78892 48.9229 5.84392 49.1535 5.9345C49.4501 6.05093 49.7232 6.22618 49.9553 6.45286C49.9621 6.45947 49.9689 6.46612 49.9755 6.47284L65.0224 21.5198C65.0683 21.5656 65.1121 21.6132 65.1538 21.6622C65.3592 21.9037 65.5137 22.182 65.6103 22.4802C65.6871 22.7174 65.7272 22.9673 65.7272 23.2212V23.3732C65.7272 22.8144 65.323 22.4802 65.0224 22.4802H51.959C50.3642 22.4802 49.0714 21.1874 49.0714 19.5927V6.50122Z" fill="url(#paint21_radial_1161_1142)"/>
<path d="M49.0714 6.50122C49.0714 6.0166 48.6911 5.82476 48.4274 5.77295C48.6781 5.78892 48.9229 5.84392 49.1535 5.9345C49.4501 6.05093 49.7232 6.22618 49.9553 6.45286C49.9621 6.45947 49.9689 6.46612 49.9755 6.47284L65.0224 21.5198C65.0683 21.5656 65.1121 21.6132 65.1538 21.6622C65.3592 21.9037 65.5137 22.182 65.6103 22.4802C65.6871 22.7174 65.7272 22.9673 65.7272 23.2212V23.3732C65.7272 22.8144 65.323 22.4802 65.0224 22.4802H51.959C50.3642 22.4802 49.0714 21.1874 49.0714 19.5927V6.50122Z" fill="url(#paint22_radial_1161_1142)"/>
<path d="M49.0714 6.50122C49.0714 6.0166 48.6911 5.82476 48.4274 5.77295C48.6781 5.78892 48.9229 5.84392 49.1535 5.9345C49.4501 6.05093 49.7232 6.22618 49.9553 6.45286C49.9621 6.45947 49.9689 6.46612 49.9755 6.47284L65.0224 21.5198C65.0683 21.5656 65.1121 21.6132 65.1538 21.6622C65.3592 21.9037 65.5137 22.182 65.6103 22.4802C65.6871 22.7174 65.7272 22.9673 65.7272 23.2212V23.3732C65.7272 22.8144 65.323 22.4802 65.0224 22.4802H51.959C50.3642 22.4802 49.0714 21.1874 49.0714 19.5927V6.50122Z" fill="url(#paint23_radial_1161_1142)"/>
<path d="M49.0714 6.50122C49.0714 6.0166 48.6911 5.82476 48.4274 5.77295C48.6781 5.78892 48.9229 5.84392 49.1535 5.9345C49.4501 6.05093 49.7232 6.22618 49.9553 6.45286C49.9621 6.45947 49.9689 6.46612 49.9755 6.47284L65.0224 21.5198C65.0683 21.5656 65.1121 21.6132 65.1538 21.6622C65.3592 21.9037 65.5137 22.182 65.6103 22.4802C65.6871 22.7174 65.7272 22.9673 65.7272 23.2212V23.3732C65.7272 22.8144 65.323 22.4802 65.0224 22.4802H51.959C50.3642 22.4802 49.0714 21.1874 49.0714 19.5927V6.50122Z" fill="url(#paint24_radial_1161_1142)"/>
<path d="M49.0714 6.50122C49.0714 6.0166 48.6911 5.82476 48.4274 5.77295C48.6781 5.78892 48.9229 5.84392 49.1535 5.9345C49.4501 6.05093 49.7232 6.22618 49.9553 6.45286C49.9621 6.45947 49.9689 6.46612 49.9755 6.47284L65.0224 21.5198C65.0683 21.5656 65.1121 21.6132 65.1538 21.6622C65.3592 21.9037 65.5137 22.182 65.6103 22.4802C65.6871 22.7174 65.7272 22.9673 65.7272 23.2212V23.3732C65.7272 22.8144 65.323 22.4802 65.0224 22.4802H51.959C50.3642 22.4802 49.0714 21.1874 49.0714 19.5927V6.50122Z" fill="url(#paint25_radial_1161_1142)"/>
<path d="M43.7253 51.3738C43.9991 51.3739 44.2212 51.5961 44.2214 51.8699V53.2654C44.2214 53.5393 43.9992 53.7613 43.7253 53.7615H23.0984C22.8245 53.7613 22.6023 53.5393 22.6023 53.2654V51.8699C22.6025 51.5961 22.8246 51.3739 23.0984 51.3738L43.7253 51.3738ZM55.5876 44.155C55.8613 44.1553 56.0835 44.3775 56.0837 44.6511V46.0466C56.0837 46.3205 55.8614 46.5425 55.5876 46.5427H23.0984C22.8245 46.5426 22.6023 46.3205 22.6023 46.0466V44.6511C22.6025 44.3774 22.8246 44.1552 23.0984 44.155L55.5876 44.155ZM55.5876 36.9363C55.8613 36.9365 56.0835 37.1587 56.0837 37.4324V38.8279C56.0837 39.1017 55.8614 39.3237 55.5876 39.324H23.0984C22.8245 39.3238 22.6023 39.1018 22.6023 38.8279V37.4324C22.6025 37.1586 22.8246 36.9364 23.0984 36.9363H55.5876ZM55.5876 29.7175C55.8613 29.7178 56.0835 29.94 56.0837 30.2136V31.6091C56.0837 31.883 55.8614 32.105 55.5876 32.1052H23.0984C22.8245 32.1051 22.6023 31.883 22.6023 31.6091V30.2136C22.6025 29.9399 22.8246 29.7177 23.0984 29.7175H55.5876Z" fill="url(#paint26_linear_1161_1142)"/>
<defs>
<linearGradient id="paint0_linear_1161_1142" x1="39.3523" y1="5.76819" x2="39.3523" y2="72.9364" gradientUnits="userSpaceOnUse">
<stop stop-color="#EBE4F3"/>
<stop offset="1" stop-color="#E4DAF0"/>
</linearGradient>
<linearGradient id="paint1_linear_1161_1142" x1="39.3523" y1="6.07338" x2="39.3523" y2="6.63539" gradientUnits="userSpaceOnUse">
<stop stop-color="#F3F0F6"/>
<stop offset="1" stop-color="#F3F0F6" stop-opacity="0"/>
</linearGradient>
<linearGradient id="paint2_linear_1161_1142" x1="65.727" y1="37.6872" x2="64.9035" y2="37.6872" gradientUnits="userSpaceOnUse">
<stop stop-color="#F3F0F6"/>
<stop offset="1" stop-color="#F3F0F6" stop-opacity="0"/>
</linearGradient>
<linearGradient id="paint3_linear_1161_1142" x1="66.2775" y1="37.6872" x2="65.309" y2="37.6872" gradientUnits="userSpaceOnUse">
<stop stop-color="#B9A6CC"/>
<stop offset="1" stop-color="#B9A6CC" stop-opacity="0"/>
</linearGradient>
<linearGradient id="paint4_linear_1161_1142" x1="11.0068" y1="37.6872" x2="13.4143" y2="37.6917" gradientUnits="userSpaceOnUse">
<stop stop-color="#B5B0BB"/>
<stop offset="1" stop-color="#B5B0BB" stop-opacity="0"/>
</linearGradient>
<linearGradient id="paint5_linear_1161_1142" x1="43.0076" y1="74.2161" x2="43.0076" y2="72.4863" gradientUnits="userSpaceOnUse">
<stop stop-color="#B5B0BB"/>
<stop offset="1" stop-color="#B5B0BB" stop-opacity="0"/>
</linearGradient>
<radialGradient id="paint6_radial_1161_1142" cx="0" cy="0" r="1" gradientUnits="userSpaceOnUse" gradientTransform="translate(14.3765 73.3803) rotate(-72.992) scale(1.2492 4.05478)">
<stop stop-color="#B5B0BB"/>
<stop offset="1" stop-color="#B5B0BB" stop-opacity="0"/>
</radialGradient>
<radialGradient id="paint7_radial_1161_1142" cx="0" cy="0" r="1" gradientUnits="userSpaceOnUse" gradientTransform="translate(13.3084 72.4528) rotate(-60.2552) scale(1.13305 3.67776)">
<stop stop-color="#B5B0BB"/>
<stop offset="1" stop-color="#B5B0BB" stop-opacity="0"/>
</radialGradient>
<radialGradient id="paint8_radial_1161_1142" cx="0" cy="0" r="1" gradientUnits="userSpaceOnUse" gradientTransform="translate(12.8868 71.2301) rotate(-38.6597) scale(0.809889 2.62882)">
<stop stop-color="#B5B0BB"/>
<stop offset="1" stop-color="#B5B0BB" stop-opacity="0"/>
</radialGradient>
<linearGradient id="paint9_linear_1161_1142" x1="11.8924" y1="69.6101" x2="13.5737" y2="69.6101" gradientUnits="userSpaceOnUse">
<stop stop-color="#B5B0BB"/>
<stop offset="1" stop-color="#B5B0BB" stop-opacity="0"/>
</linearGradient>
<linearGradient id="paint10_linear_1161_1142" x1="11.1316" y1="6.41514" x2="14.2723" y2="7.77952" gradientUnits="userSpaceOnUse">
<stop stop-color="#B5B0BB"/>
<stop offset="1" stop-color="#B5B0BB" stop-opacity="0"/>
</linearGradient>
<linearGradient id="paint11_linear_1161_1142" x1="11.6866" y1="36.7658" x2="14.1162" y2="36.7658" gradientUnits="userSpaceOnUse">
<stop stop-color="#B9A6CC"/>
<stop offset="1" stop-color="#B9A6CC" stop-opacity="0"/>
</linearGradient>
<linearGradient id="paint12_linear_1161_1142" x1="39.3523" y1="72.9364" x2="39.3523" y2="72.3648" gradientUnits="userSpaceOnUse">
<stop stop-color="#B9A6CC"/>
<stop offset="1" stop-color="#B9A6CC" stop-opacity="0"/>
</linearGradient>
<linearGradient id="paint13_linear_1161_1142" x1="64.402" y1="72.5221" x2="64.054" y2="71.8743" gradientUnits="userSpaceOnUse">
<stop stop-color="#B9A6CC"/>
<stop offset="1" stop-color="#B9A6CC" stop-opacity="0"/>
</linearGradient>
<linearGradient id="paint14_linear_1161_1142" x1="52.1168" y1="12.725" x2="47.9864" y2="12.725" gradientUnits="userSpaceOnUse">
<stop offset="0.72" stop-color="#D2C5DE"/>
<stop offset="1" stop-color="#D2C5DF" stop-opacity="0"/>
</linearGradient>
<linearGradient id="paint15_linear_1161_1142" x1="57.9398" y1="27.8671" x2="57.9102" y2="22.4166" gradientUnits="userSpaceOnUse">
<stop offset="0.72" stop-color="#E9E1F3"/>
<stop offset="1" stop-color="#E9E1F3" stop-opacity="0"/>
</linearGradient>
<linearGradient id="paint16_linear_1161_1142" x1="50.1421" y1="20.7327" x2="46.061" y2="27.1274" gradientUnits="userSpaceOnUse">
<stop stop-color="#E9E1F3" stop-opacity="0"/>
<stop offset="0.682292" stop-color="#E9E1F3"/>
</linearGradient>
<linearGradient id="paint17_linear_1161_1142" x1="50.2746" y1="21.8035" x2="56.6286" y2="15.4495" gradientUnits="userSpaceOnUse">
<stop stop-color="#D9D3E1"/>
<stop offset="1" stop-color="#CCC7D1"/>
</linearGradient>
<linearGradient id="paint18_linear_1161_1142" x1="58.0573" y1="14.2087" x2="56.5158" y2="15.7126" gradientUnits="userSpaceOnUse">
<stop offset="0.119171" stop-color="#DBDADC"/>
<stop offset="0.577307" stop-color="#CBC7D0" stop-opacity="0"/>
</linearGradient>
<linearGradient id="paint19_linear_1161_1142" x1="49.015" y1="12.2779" x2="49.3705" y2="12.2779" gradientUnits="userSpaceOnUse">
<stop stop-color="#A19CA7"/>
<stop offset="1" stop-color="#9D9CA7" stop-opacity="0"/>
</linearGradient>
<linearGradient id="paint20_linear_1161_1142" x1="57.0773" y1="22.5931" x2="57.0773" y2="22.1043" gradientUnits="userSpaceOnUse">
<stop stop-color="#C0ACD5"/>
<stop offset="1" stop-color="#C0ACD5" stop-opacity="0"/>
</linearGradient>
<radialGradient id="paint21_radial_1161_1142" cx="0" cy="0" r="1" gradientUnits="userSpaceOnUse" gradientTransform="translate(51.1062 22.7447) rotate(-81.1582) scale(0.889889 5.15314)">
<stop stop-color="#C0ACD5"/>
<stop offset="1" stop-color="#C0ACD5" stop-opacity="0"/>
</radialGradient>
<radialGradient id="paint22_radial_1161_1142" cx="0" cy="0" r="1" gradientUnits="userSpaceOnUse" gradientTransform="translate(49.7579 22.0803) rotate(-40.8602) scale(0.82234 4.76198)">
<stop stop-color="#A19CA7"/>
<stop offset="1" stop-color="#A19CA7" stop-opacity="0"/>
</radialGradient>
<radialGradient id="paint23_radial_1161_1142" cx="0" cy="0" r="1" gradientUnits="userSpaceOnUse" gradientTransform="translate(49.0592 21.3159) rotate(-24.7752) scale(0.810383 4.69275)">
<stop stop-color="#A19CA7"/>
<stop offset="1" stop-color="#A19CA7" stop-opacity="0"/>
</radialGradient>
<radialGradient id="paint24_radial_1161_1142" cx="0" cy="0" r="1" gradientUnits="userSpaceOnUse" gradientTransform="translate(48.5871 20.4803) rotate(-6.45541) scale(1.01586 5.88261)">
<stop stop-color="#A19CA7"/>
<stop offset="1" stop-color="#A19CA7" stop-opacity="0"/>
</radialGradient>
<radialGradient id="paint25_radial_1161_1142" cx="0" cy="0" r="1" gradientUnits="userSpaceOnUse" gradientTransform="translate(50.1001 22.234) rotate(-59.8587) scale(0.662881 3.83859)">
<stop stop-color="#A19CA7"/>
<stop offset="1" stop-color="#A19CA7" stop-opacity="0"/>
</radialGradient>
<linearGradient id="paint26_linear_1161_1142" x1="22.6023" y1="52.5677" x2="44.2214" y2="52.5677" gradientUnits="userSpaceOnUse">
<stop stop-color="#9C96A2"/>
<stop offset="1" stop-color="#9A95A1"/>
</linearGradient>
</defs>
</svg>
