<svg width="77" height="77" viewBox="0 0 77 77" fill="none" xmlns="http://www.w3.org/2000/svg">
<rect width="18.0782" height="29.377" rx="5" transform="matrix(-0.707107 -0.707107 -0.707107 0.707107 35.0974 55.0242)" fill="url(#paint0_linear_1161_1151)"/>
<rect width="18.0782" height="29.377" rx="5" transform="matrix(-0.707107 -0.707107 -0.707107 0.707107 35.0974 55.0242)" fill="url(#paint1_linear_1161_1151)"/>
<rect width="18.0782" height="29.377" rx="5" transform="matrix(-0.707107 -0.707107 -0.707107 0.707107 35.0974 55.0242)" fill="url(#paint2_linear_1161_1151)"/>
<rect width="18.0782" height="29.377" rx="5" transform="matrix(-0.707107 -0.707107 -0.707107 0.707107 35.0974 55.0242)" fill="url(#paint3_radial_1161_1151)"/>
<path fill-rule="evenodd" clip-rule="evenodd" d="M45.9443 57.2612C31.5752 57.2612 19.9268 45.6128 19.9268 31.2437C19.9268 16.8745 31.5752 5.22607 45.9443 5.22607C60.3135 5.22607 71.9619 16.8745 71.9619 31.2437C71.9619 45.6128 60.3135 57.2612 45.9443 57.2612ZM45.9443 53.0503C33.9009 53.0503 24.1377 43.2871 24.1377 31.2437C24.1377 19.2002 33.9009 9.43701 45.9443 9.43701C57.9878 9.43701 67.751 19.2002 67.751 31.2437C67.751 43.2871 57.9878 53.0503 45.9443 53.0503Z" fill="url(#paint4_linear_1161_1151)"/>
<path fill-rule="evenodd" clip-rule="evenodd" d="M45.9441 56.6729C31.8999 56.6729 20.5149 45.2878 20.5149 31.2437C20.5149 17.1995 31.8999 5.81445 45.9441 5.81445C59.9883 5.81445 71.3733 17.1995 71.3733 31.2437C71.3733 45.2878 59.9883 56.6729 45.9441 56.6729ZM45.9441 52.5572C34.173 52.5572 24.6306 43.0147 24.6306 31.2437C24.6306 19.4726 34.173 9.93016 45.9441 9.93016C57.7152 9.93016 67.2576 19.4726 67.2576 31.2437C67.2576 43.0147 57.7152 52.5572 45.9441 52.5572Z" fill="url(#paint5_linear_1161_1151)"/>
<path fill-rule="evenodd" clip-rule="evenodd" d="M45.9441 56.6729C31.8999 56.6729 20.5149 45.2878 20.5149 31.2437C20.5149 17.1995 31.8999 5.81445 45.9441 5.81445C59.9883 5.81445 71.3733 17.1995 71.3733 31.2437C71.3733 45.2878 59.9883 56.6729 45.9441 56.6729ZM45.9441 52.5572C34.173 52.5572 24.6306 43.0147 24.6306 31.2437C24.6306 19.4726 34.173 9.93016 45.9441 9.93016C57.7152 9.93016 67.2576 19.4726 67.2576 31.2437C67.2576 43.0147 57.7152 52.5572 45.9441 52.5572Z" fill="url(#paint6_radial_1161_1151)"/>
<circle cx="22.3662" cy="22.3662" r="22.3662" transform="matrix(-1 0 0 1 68.3102 8.87744)" fill="url(#paint7_linear_1161_1151)"/>
<circle cx="21.8066" cy="21.8066" r="21.8066" transform="matrix(-1 0 0 1 67.751 9.43701)" fill="#64D0EA"/>
<circle cx="21.8066" cy="21.8066" r="21.8066" transform="matrix(-1 0 0 1 67.751 9.43701)" fill="url(#paint8_radial_1161_1151)"/>
<ellipse cx="56.1208" cy="21.969" rx="3.9733" ry="4.89295" transform="rotate(-38.8957 56.1208 21.969)" fill="url(#paint9_linear_1161_1151)"/>
<defs>
<linearGradient id="paint0_linear_1161_1151" x1="1.51538" y1="24.9373" x2="11.9369" y2="4.4132" gradientUnits="userSpaceOnUse">
<stop stop-color="#A0659C"/>
<stop offset="1" stop-color="#895792"/>
</linearGradient>
<linearGradient id="paint1_linear_1161_1151" x1="9.0125" y1="1.27611" x2="9.0391" y2="11.5913" gradientUnits="userSpaceOnUse">
<stop stop-color="#6C3B74"/>
<stop offset="1" stop-color="#845590" stop-opacity="0"/>
</linearGradient>
<linearGradient id="paint2_linear_1161_1151" x1="18.3174" y1="20.0455" x2="5.92858" y2="19.6733" gradientUnits="userSpaceOnUse">
<stop offset="0.115168" stop-color="#703D7A"/>
<stop offset="1" stop-color="#703D7A" stop-opacity="0"/>
</linearGradient>
<radialGradient id="paint3_radial_1161_1151" cx="0" cy="0" r="1" gradientUnits="userSpaceOnUse" gradientTransform="translate(9.14543 -0.451955) rotate(92.4424) scale(5.61465 13.0488)">
<stop stop-color="#2F1A3D"/>
<stop offset="1" stop-color="#532D64" stop-opacity="0"/>
</radialGradient>
<linearGradient id="paint4_linear_1161_1151" x1="45.9443" y1="5.22607" x2="45.9443" y2="57.2612" gradientUnits="userSpaceOnUse">
<stop offset="0.378529" stop-color="#344A7D"/>
<stop offset="0.633316" stop-color="#785790"/>
<stop offset="0.837142" stop-color="#785790"/>
<stop offset="1" stop-color="#9872A2"/>
</linearGradient>
<linearGradient id="paint5_linear_1161_1151" x1="45.9441" y1="5.81445" x2="45.9441" y2="56.6729" gradientUnits="userSpaceOnUse">
<stop stop-color="#475890"/>
<stop offset="1" stop-color="#7A4D87"/>
</linearGradient>
<radialGradient id="paint6_radial_1161_1151" cx="0" cy="0" r="1" gradientUnits="userSpaceOnUse" gradientTransform="translate(45.9441 17.8213) rotate(-89.9999) scale(12.332 22.9345)">
<stop offset="0.704268" stop-color="#566298"/>
<stop offset="0.786585" stop-color="#566298" stop-opacity="0"/>
</radialGradient>
<linearGradient id="paint7_linear_1161_1151" x1="22.3662" y1="0" x2="22.3662" y2="44.7324" gradientUnits="userSpaceOnUse">
<stop stop-color="#204083"/>
<stop offset="1" stop-color="#523573"/>
</linearGradient>
<radialGradient id="paint8_radial_1161_1151" cx="0" cy="0" r="1" gradientUnits="userSpaceOnUse" gradientTransform="translate(21.8066 23.0474) rotate(90) scale(26.4688)">
<stop offset="0.651103" stop-color="#33A2F3" stop-opacity="0"/>
<stop offset="1" stop-color="#33A2F3"/>
</radialGradient>
<linearGradient id="paint9_linear_1161_1151" x1="56.1208" y1="17.0761" x2="56.1208" y2="26.862" gradientUnits="userSpaceOnUse">
<stop stop-color="#DCDBF2"/>
<stop offset="0.209118" stop-color="#DCDBF2" stop-opacity="0.84797"/>
<stop offset="1" stop-color="#DCDBF2" stop-opacity="0"/>
</linearGradient>
</defs>
</svg>
