<svg width="25" height="25" viewBox="0 0 25 25" fill="none" xmlns="http://www.w3.org/2000/svg">
<path fill-rule="evenodd" clip-rule="evenodd" d="M15.26 3.5375C15.8267 3.7125 16.3683 3.9375 16.885 4.2125L19.1762 2.8375C19.4152 2.6942 19.6951 2.63482 19.9716 2.66879C20.2481 2.70276 20.5054 2.82813 20.7025 3.025L21.975 4.2975C22.1719 4.49463 22.2972 4.75187 22.3312 5.02838C22.3652 5.3049 22.3058 5.58484 22.1625 5.82375L20.7875 8.115C21.0625 8.63167 21.2875 9.17333 21.4625 9.74L24.0538 10.3887C24.3241 10.4565 24.564 10.6126 24.7354 10.8322C24.9069 11.0519 25 11.3226 25 11.6013V13.3987C25 13.6774 24.9069 13.9481 24.7354 14.1678C24.564 14.3874 24.3241 14.5435 24.0538 14.6113L21.4625 15.26C21.2875 15.8267 21.0625 16.3683 20.7875 16.885L22.1625 19.1762C22.3058 19.4152 22.3652 19.6951 22.3312 19.9716C22.2972 20.2481 22.1719 20.5054 21.975 20.7025L20.7025 21.975C20.5054 22.1719 20.2481 22.2972 19.9716 22.3312C19.6951 22.3652 19.4152 22.3058 19.1762 22.1625L16.885 20.7875C16.3683 21.0625 15.8267 21.2875 15.26 21.4625L14.6113 24.0538C14.5435 24.3241 14.3874 24.564 14.1678 24.7354C13.9481 24.9069 13.6774 25 13.3987 25H11.6013C11.3226 25 11.0519 24.9069 10.8322 24.7354C10.6126 24.564 10.4565 24.3241 10.3887 24.0538L9.74 21.4625C9.17837 21.2889 8.63431 21.0629 8.115 20.7875L5.82375 22.1625C5.58484 22.3058 5.3049 22.3652 5.02838 22.3312C4.75187 22.2972 4.49463 22.1719 4.2975 21.975L3.025 20.7025C2.82813 20.5054 2.70276 20.2481 2.66879 19.9716C2.63482 19.6951 2.6942 19.4152 2.8375 19.1762L4.2125 16.885C3.93705 16.3657 3.71106 15.8216 3.5375 15.26L0.94625 14.6113C0.676149 14.5436 0.436373 14.3877 0.264953 14.1683C0.0935337 13.9488 0.000285803 13.6784 0 13.4V11.6025C7.32554e-06 11.3238 0.0931277 11.0532 0.264569 10.8335C0.436011 10.6138 0.675942 10.4577 0.94625 10.39L3.5375 9.74125C3.7125 9.17458 3.9375 8.63292 4.2125 8.11625L2.8375 5.825C2.6942 5.58609 2.63482 5.30615 2.66879 5.02963C2.70276 4.75312 2.82813 4.49588 3.025 4.29875L4.2975 3.025C4.49463 2.82813 4.75187 2.70276 5.02838 2.66879C5.3049 2.63482 5.58484 2.6942 5.82375 2.8375L8.115 4.2125C8.63167 3.9375 9.17333 3.7125 9.74 3.5375L10.3887 0.94625C10.4564 0.676149 10.6123 0.436373 10.8317 0.264953C11.0512 0.0935337 11.3216 0.000285803 11.6 0H13.3975C13.6762 7.32554e-06 13.9468 0.0931277 14.1665 0.264569C14.3862 0.436011 14.5423 0.675942 14.61 0.94625L15.26 3.5375ZM12.5 17.5C13.8261 17.5 15.0979 16.9732 16.0355 16.0355C16.9732 15.0979 17.5 13.8261 17.5 12.5C17.5 11.1739 16.9732 9.90215 16.0355 8.96447C15.0979 8.02678 13.8261 7.5 12.5 7.5C11.1739 7.5 9.90215 8.02678 8.96447 8.96447C8.02678 9.90215 7.5 11.1739 7.5 12.5C7.5 13.8261 8.02678 15.0979 8.96447 16.0355C9.90215 16.9732 11.1739 17.5 12.5 17.5Z" fill="#9E9E9E"/>
</svg>
